<?xml version="1.0" standalone="no"?>
<!DOCTYPE svg PUBLIC "-//W3C//DTD SVG 20010904//EN"
 "http://www.w3.org/TR/2001/REC-SVG-20010904/DTD/svg10.dtd">
<svg version="1.0" xmlns="http://www.w3.org/2000/svg"
 width="512.000000pt" height="512.000000pt" viewBox="0 0 512.000000 512.000000"
 preserveAspectRatio="xMidYMid meet">

<g transform="translate(0.000000,512.000000) scale(0.100000,-0.100000)"
fill="#000000" stroke="none">
<path d="M2380 4954 c-241 -27 -382 -56 -555 -111 -507 -163 -948 -491 -1244
-927 -207 -305 -337 -638 -398 -1018 -24 -157 -24 -517 1 -676 74 -472 259
-879 561 -1230 382 -445 916 -731 1515 -814 123 -17 478 -16 600 1 697 96
1288 457 1678 1024 206 299 339 639 398 1019 25 157 25 518 1 675 -82 521
-313 985 -671 1347 -369 374 -830 607 -1363 691 -93 15 -448 28 -523 19z m-75
-1293 c27 -13 204 -183 542 -522 544 -546 525 -524 508 -616 -6 -33 -67 -99
-513 -546 -538 -538 -549 -547 -624 -533 -89 17 -146 96 -133 185 6 45 17 57
448 489 l442 442 -437 438 c-460 461 -468 471 -454 545 10 53 43 97 89 117 53
24 81 25 132 1z"/>
</g>
</svg>
